<?xml version="1.0" encoding="UTF-8" standalone="no"?><svg xmlns="http://www.w3.org/2000/svg" xmlns:xlink="http://www.w3.org/1999/xlink" contentScriptType="application/ecmascript" contentStyleType="text/css" height="1183.3333px" preserveAspectRatio="none" style="width:1243px;height:1183px;background:#00000000;" version="1.1" viewBox="0 0 1243 1183" width="1243.75px" zoomAndPan="magnify"><defs><linearGradient id="ggc5316x0n56t0" x1="50%" x2="50%" y1="0%" y2="100%"><stop offset="0%" stop-color="#FFFFFF"/><stop offset="100%" stop-color="#FFFFFF"/></linearGradient><filter height="300%" id="fgc5316x0n56t" width="300%" x="-1" y="-1"><feGaussianBlur result="blurOut" stdDeviation="2.0833333333333335"/><feColorMatrix in="blurOut" result="blurOut2" type="matrix" values="0 0 0 0 0 0 0 0 0 0 0 0 0 0 0 0 0 0 .4 0"/><feOffset dx="4.166666666666667" dy="4.166666666666667" in="blurOut2" result="blurOut3"/><feBlend in="SourceGraphic" in2="blurOut3" mode="normal"/></filter><linearGradient id="ggc5316x0n56t1" x1="50%" x2="50%" y1="0%" y2="100%"><stop offset="0%" stop-color="#4DABF5"/><stop offset="100%" stop-color="#2196F3"/></linearGradient></defs><g><!--MD5=[d8ebde632f1aade18e03426e4f795fbc]
cluster PSC--><path d="M20.8333,211.4583 L79.0365,211.4583 A6.25,6.25 0 0 1 83.2031,215.625 L90.4948,266.9166 L1227.0833,266.9166 A4.1667,4.1667 0 0 1 1231.25,271.0833 L1231.25,1166.6667 A4.1667,4.1667 0 0 1 1227.0833,1170.8333 L20.8333,1170.8333 A4.1667,4.1667 0 0 1 16.6667,1166.6667 L16.6667,215.625 A4.1667,4.1667 0 0 1 20.8333,211.4583 " fill="url(#ggc5316x0n56t0)" filter="url(#fgc5316x0n56t)" style="stroke:#2196F3;stroke-width:1.0416666666666667;"/><line style="stroke:#2196F3;stroke-width:1.0416666666666667;" x1="16.6667" x2="90.4948" y1="266.9166" y2="266.9166"/><text fill="#2196F3" font-family="&quot;Verdana&quot;" font-size="20.8333" font-weight="bold" lengthAdjust="spacing" textLength="39.4531" x="31.25" y="246.2291">PSC</text><!--MD5=[7ee6e2406e399f3bba25367140d8e623]
cluster Departments--><path d="M681.25,296.875 L835.2865,296.875 A6.25,6.25 0 0 1 839.4531,301.0417 L846.7448,352.3333 L1193.75,352.3333 A4.1667,4.1667 0 0 1 1197.9167,356.5 L1197.9167,1133.3333 A4.1667,4.1667 0 0 1 1193.75,1137.5 L681.25,1137.5 A4.1667,4.1667 0 0 1 677.0833,1133.3333 L677.0833,301.0417 A4.1667,4.1667 0 0 1 681.25,296.875 " fill="url(#ggc5316x0n56t0)" filter="url(#fgc5316x0n56t)" style="stroke:#2196F3;stroke-width:1.0416666666666667;"/><line style="stroke:#2196F3;stroke-width:1.0416666666666667;" x1="677.0833" x2="846.7448" y1="352.3333" y2="352.3333"/><text fill="#2196F3" font-family="&quot;Verdana&quot;" font-size="20.8333" font-weight="bold" lengthAdjust="spacing" textLength="135.2865" x="691.6667" y="331.6458">Departments</text><!--MD5=[9877f6724d1a276f2a95363da75a191d]
entity adm--><ellipse cx="95.8333" cy="383.3333" fill="url(#ggc5316x0n56t1)" filter="url(#fgc5316x0n56t)" rx="8.3333" ry="8.3333" style="stroke:#2196F3;stroke-width:1.0416666666666667;"/><path d="M95.8333,391.6667 L95.8333,419.7917 M82.2917,400 L109.375,400 M95.8333,419.7917 L82.2917,435.4167 M95.8333,419.7917 L109.375,435.4167 " fill="none" filter="url(#fgc5316x0n56t)" style="stroke:#2196F3;stroke-width:1.0416666666666667;"/><text fill="#222222" font-family="&quot;Verdana&quot;" font-size="14.5833" lengthAdjust="spacing" textLength="104.1667" x="43.75" y="466.6312">Administration</text><!--MD5=[e83df355298ce537a47300f99b8f325a]
entity serv--><ellipse cx="421.875" cy="383.3333" fill="url(#ggc5316x0n56t1)" filter="url(#fgc5316x0n56t)" rx="8.3333" ry="8.3333" style="stroke:#2196F3;stroke-width:1.0416666666666667;"/><path d="M421.875,391.6667 L421.875,419.7917 M408.3333,400 L435.4167,400 M421.875,419.7917 L408.3333,435.4167 M421.875,419.7917 L435.4167,435.4167 " fill="none" filter="url(#fgc5316x0n56t)" style="stroke:#2196F3;stroke-width:1.0416666666666667;"/><text fill="#222222" font-family="&quot;Verdana&quot;" font-size="14.5833" lengthAdjust="spacing" textLength="50" x="396.875" y="466.6312">Service</text><!--MD5=[25fdbc256ceb9e3bdcb330150c9533c0]
entity sec--><ellipse cx="796.875" cy="1014.5833" fill="url(#ggc5316x0n56t1)" filter="url(#fgc5316x0n56t)" rx="8.3333" ry="8.3333" style="stroke:#2196F3;stroke-width:1.0416666666666667;"/><path d="M796.875,1022.9167 L796.875,1051.0417 M783.3333,1031.25 L810.4167,1031.25 M796.875,1051.0417 L783.3333,1066.6667 M796.875,1051.0417 L810.4167,1066.6667 " fill="none" filter="url(#fgc5316x0n56t)" style="stroke:#2196F3;stroke-width:1.0416666666666667;"/><text fill="#222222" font-family="&quot;Verdana&quot;" font-size="14.5833" lengthAdjust="spacing" textLength="143.75" x="725" y="1097.8812">Security department</text><!--MD5=[3173f5c488fc7caa7cbc2980bfdb2303]
entity ink--><ellipse cx="1043.75" cy="1014.5833" fill="url(#ggc5316x0n56t1)" filter="url(#fgc5316x0n56t)" rx="8.3333" ry="8.3333" style="stroke:#2196F3;stroke-width:1.0416666666666667;"/><path d="M1043.75,1022.9167 L1043.75,1051.0417 M1030.2083,1031.25 L1057.2917,1031.25 M1043.75,1051.0417 L1030.2083,1066.6667 M1043.75,1051.0417 L1057.2917,1066.6667 " fill="none" filter="url(#fgc5316x0n56t)" style="stroke:#2196F3;stroke-width:1.0416666666666667;"/><text fill="#222222" font-family="&quot;Verdana&quot;" font-size="14.5833" lengthAdjust="spacing" textLength="160.4167" x="963.5417" y="1097.8812">Inkosation department</text><!--MD5=[596ab71e12396e6d88b59b99bd679e81]
entity wpn--><ellipse cx="941.6667" cy="804.1667" fill="url(#ggc5316x0n56t1)" filter="url(#fgc5316x0n56t)" rx="8.3333" ry="8.3333" style="stroke:#2196F3;stroke-width:1.0416666666666667;"/><path d="M941.6667,812.5 L941.6667,840.625 M928.125,820.8333 L955.2083,820.8333 M941.6667,840.625 L928.125,856.25 M941.6667,840.625 L955.2083,856.25 " fill="none" filter="url(#fgc5316x0n56t)" style="stroke:#2196F3;stroke-width:1.0416666666666667;"/><text fill="#222222" font-family="&quot;Verdana&quot;" font-size="14.5833" lengthAdjust="spacing" textLength="136.4583" x="873.4375" y="887.4645">Wapon department</text><!--MD5=[c8bd106169e92d1cec7d5e24ed4a2f44]
entity acc--><ellipse cx="941.6667" cy="593.75" fill="url(#ggc5316x0n56t1)" filter="url(#fgc5316x0n56t)" rx="8.3333" ry="8.3333" style="stroke:#2196F3;stroke-width:1.0416666666666667;"/><path d="M941.6667,602.0833 L941.6667,630.2083 M928.125,610.4167 L955.2083,610.4167 M941.6667,630.2083 L928.125,645.8333 M941.6667,630.2083 L955.2083,645.8333 " fill="none" filter="url(#fgc5316x0n56t)" style="stroke:#2196F3;stroke-width:1.0416666666666667;"/><text fill="#222222" font-family="&quot;Verdana&quot;" font-size="14.5833" lengthAdjust="spacing" textLength="166.6667" x="858.3333" y="677.0478">Accounting department</text><!--MD5=[0330432914290acc6fa0b9d79f63f330]
entity rec--><ellipse cx="941.6667" cy="383.3333" fill="url(#ggc5316x0n56t1)" filter="url(#fgc5316x0n56t)" rx="8.3333" ry="8.3333" style="stroke:#2196F3;stroke-width:1.0416666666666667;"/><path d="M941.6667,391.6667 L941.6667,419.7917 M928.125,400 L955.2083,400 M941.6667,419.7917 L928.125,435.4167 M941.6667,419.7917 L955.2083,435.4167 " fill="none" filter="url(#fgc5316x0n56t)" style="stroke:#2196F3;stroke-width:1.0416666666666667;"/><text fill="#222222" font-family="&quot;Verdana&quot;" font-size="14.5833" lengthAdjust="spacing" textLength="137.5" x="872.9167" y="466.6312">Recruit department</text><!--MD5=[773eb571fde6ee03a00dd7634db690eb]
entity cus--><ellipse cx="306.25" cy="25" fill="url(#ggc5316x0n56t1)" filter="url(#fgc5316x0n56t)" rx="8.3333" ry="8.3333" style="stroke:#2196F3;stroke-width:1.0416666666666667;"/><path d="M306.25,33.3333 L306.25,61.4583 M292.7083,41.6667 L319.7917,41.6667 M306.25,61.4583 L292.7083,77.0833 M306.25,61.4583 L319.7917,77.0833 " fill="none" filter="url(#fgc5316x0n56t)" style="stroke:#2196F3;stroke-width:1.0416666666666667;"/><text fill="#222222" font-family="&quot;Verdana&quot;" font-size="14.5833" lengthAdjust="spacing" textLength="67.7083" x="272.3958" y="108.2978">Customer</text><!--MD5=[d929c64838e32f5c0eece95d4d8530d0]
entity req--><ellipse cx="538.5417" cy="25" fill="url(#ggc5316x0n56t1)" filter="url(#fgc5316x0n56t)" rx="8.3333" ry="8.3333" style="stroke:#2196F3;stroke-width:1.0416666666666667;"/><path d="M538.5417,33.3333 L538.5417,61.4583 M525,41.6667 L552.0833,41.6667 M538.5417,61.4583 L525,77.0833 M538.5417,61.4583 L552.0833,77.0833 " fill="none" filter="url(#fgc5316x0n56t)" style="stroke:#2196F3;stroke-width:1.0416666666666667;"/><text fill="#222222" font-family="&quot;Verdana&quot;" font-size="14.5833" lengthAdjust="spacing" textLength="45.8333" x="515.625" y="108.2978">Recrut</text><!--MD5=[76e38d8debd99656dbc6a4169b6ae355]
link cus to serv--><path d="M298.5833,128.3542 C297.4063,149.5208 297.9792,173.4792 303.125,194.7917 C318.6042,258.9583 355.0521,325.3125 383.5104,370.4896 " fill="none" id="cus-serv" style="stroke:#2196F3;stroke-width:3.125;"/><polygon fill="#2196F3" points="386.4167,375.0729,384.9321,364.9217,383.6349,370.6697,377.8869,369.3725,386.4167,375.0729" style="stroke:#2196F3;stroke-width:3.125;"/><polygon fill="#2196F3" points="298.9167,123.0417,294.1685,132.136,298.589,128.2397,302.4853,132.6602,298.9167,123.0417" style="stroke:#2196F3;stroke-width:3.125;"/><text fill="#222222" font-family="&quot;Verdana&quot;" font-size="13.5417" lengthAdjust="spacing" textLength="167.7083" x="314.5833" y="180.1011">Contract request/response</text><!--MD5=[e95a7da4153ec6c168f155ffc0a0dfce]
link req to serv--><path d="M519.7292,128.0104 C512.875,149.0313 505.0521,172.9896 497.9167,194.7917 C478.5417,254.0104 456.3125,321.7188 440.9167,368.6042 " fill="none" id="req-serv" style="stroke:#2196F3;stroke-width:3.125;"/><polygon fill="#2196F3" points="439.2604,373.6458,446.1368,366.0322,440.8807,368.6959,438.2169,363.4398,439.2604,373.6458" style="stroke:#2196F3;stroke-width:3.125;"/><polygon fill="#2196F3" points="521.3646,123.0104,514.4882,130.6241,519.7443,127.9603,522.4081,133.2164,521.3646,123.0104" style="stroke:#2196F3;stroke-width:3.125;"/><text fill="#222222" font-family="&quot;Verdana&quot;" font-size="13.5417" lengthAdjust="spacing" textLength="189.5833" x="521.875" y="180.1011">Registration request/response</text><!--MD5=[c86896d515a6065949a506fbbf4d05a9]
link adm to serv--><path d="M163.9271,427.6042 C229.4896,427.6042 326.4896,427.6042 380.9479,427.6042 " fill="none" id="adm-serv" style="stroke:#2196F3;stroke-width:3.125;"/><polygon fill="#2196F3" points="386.4063,427.6042,377.0313,423.4375,381.1979,427.6042,377.0313,431.7708,386.4063,427.6042" style="stroke:#2196F3;stroke-width:3.125;"/><polygon fill="#2196F3" points="158.6979,427.6042,168.0729,431.7708,163.9063,427.6042,168.0729,423.4375,158.6979,427.6042" style="stroke:#2196F3;stroke-width:3.125;"/><text fill="#222222" font-family="&quot;Verdana&quot;" font-size="13.5417" lengthAdjust="spacing" textLength="168.75" x="188.0208" y="409.7886">Custom Request/Response</text><!--MD5=[0957040f965564aeedd83b9c5f86dce2]
link Departments to serv--><path d="M676.6779,427.6042 C676.3868,427.6042 676.0892,427.6042 675.785,427.6042 C670.9178,427.6042 664.3762,427.6042 656.5552,427.6042 C640.9131,427.6042 620.153,427.6042 597.4336,427.6042 C551.9948,427.6042 498.7188,427.6042 462.875,427.6042 " fill="none" id="Departments-serv" style="stroke:#2196F3;stroke-width:3.125;"/><polygon fill="#2196F3" points="457.4167,427.6042,466.7917,431.7708,462.625,427.6042,466.7917,423.4375,457.4167,427.6042" style="stroke:#2196F3;stroke-width:3.125;"/><polygon fill="#2196F3" points="676.6779,427.6042,667.3029,423.4375,671.4695,427.6042,667.3029,431.7708,676.6779,427.6042" style="stroke:#2196F3;stroke-width:3.125;"/><text fill="#222222" font-family="&quot;Verdana&quot;" font-size="13.5417" lengthAdjust="spacing" textLength="168.75" x="486.7917" y="409.7886">Custom Request/Response</text><!--MD5=[ec839d2c4d8f330ffaf2ea7c31a1aa32]
link wpn to sec--><path d="M858.8229,896.3438 C845.5417,907.0104 833.1563,919.3854 823.9583,933.3333 C811.0521,952.9063 804.1875,977.6146 800.5833,999.8438 " fill="none" id="wpn-sec" style="stroke:#2196F3;stroke-width:3.125;"/><polygon fill="#2196F3" points="799.7708,1005.1354,805.2845,996.4838,800.5449,999.9849,797.0438,995.2453,799.7708,1005.1354" style="stroke:#2196F3;stroke-width:3.125;"/><polygon fill="#2196F3" points="862.9792,893.0938,853.0328,895.6079,858.8832,896.3109,858.1802,902.1614,862.9792,893.0938" style="stroke:#2196F3;stroke-width:3.125;"/><text fill="#222222" font-family="&quot;Verdana&quot;" font-size="13.5417" lengthAdjust="spacing" textLength="95.8333" x="835.4167" y="959.2677">Wapon request</text><!--MD5=[1f20e79d0dba2c69d2c3e816b314d7ea]
link wpn to ink--><path d="M946,907.3438 C949.3438,929.1146 955.2396,953.5208 965.625,973.9583 C970.3542,983.2604 976.4167,992.2604 983.0729,1000.7083 " fill="none" id="wpn-ink" style="stroke:#2196F3;stroke-width:3.125;"/><polygon fill="#2196F3" points="986.3854,1004.8125,983.7294,994.903,983.1101,1000.763,977.2501,1000.1436,986.3854,1004.8125" style="stroke:#2196F3;stroke-width:3.125;"/><polygon fill="#2196F3" points="945.2396,902.1667,942.4845,912.0491,945.9991,907.3193,950.7288,910.8339,945.2396,902.1667" style="stroke:#2196F3;stroke-width:3.125;"/><text fill="#222222" font-family="&quot;Verdana&quot;" font-size="13.5417" lengthAdjust="spacing" textLength="95.8333" x="977.0833" y="959.2677">Wapon request</text><!--MD5=[8e461db7974b8804d72f4b496b869b9c]
link acc to wpn--><path d="M941.6667,691.9063 C941.6667,721.6458 941.6667,758.8333 941.6667,789.375 " fill="none" id="acc-to-wpn" style="stroke:#2196F3;stroke-width:3.125;"/><polygon fill="#2196F3" points="941.6667,794.6146,945.8333,785.2396,941.6667,789.4063,937.5,785.2396,941.6667,794.6146" style="stroke:#2196F3;stroke-width:3.125;"/><text fill="#222222" font-family="&quot;Verdana&quot;" font-size="13.5417" lengthAdjust="spacing" textLength="56.25" x="953.125" y="748.8511">Payment</text><!--MD5=[76587b933946c86717d9be0f36fe7869]
link acc to sec--><path d="M855.0417,691.8958 C820.4375,718.1042 784.3958,753.125 765.625,794.7917 C735.9792,860.5938 754.4271,944.5625 773.1458,999.6979 " fill="none" id="acc-to-sec" style="stroke:#2196F3;stroke-width:3.125;"/><polygon fill="#2196F3" points="774.9479,1004.9375,775.8346,994.7167,773.2519,1000.0131,767.9555,997.4303,774.9479,1004.9375" style="stroke:#2196F3;stroke-width:3.125;"/><text fill="#222222" font-family="&quot;Verdana&quot;" font-size="13.5417" lengthAdjust="spacing" textLength="56.25" x="777.0833" y="854.0594">Payment</text><!--MD5=[41906bbc38a0a6c2565fbd21476d8547]
reverse link rec to acc--><path d="M941.6667,486.7188 C941.6667,517.2813 941.6667,554.4583 941.6667,584.1979 " fill="none" id="rec-backto-acc" style="stroke:#2196F3;stroke-width:3.125;"/><polygon fill="#2196F3" points="941.6667,481.4896,937.5,490.8646,941.6667,486.6979,945.8333,490.8646,941.6667,481.4896" style="stroke:#2196F3;stroke-width:3.125;"/><text fill="#222222" font-family="&quot;Verdana&quot;" font-size="13.5417" lengthAdjust="spacing" textLength="56.25" x="953.125" y="538.4344">Payment</text><!--MD5=[337997b0397f2b85e52570263bd600e5]
link acc to ink--><path d="M1005.125,691.75 C1014.1354,701.3958 1022.5625,711.9167 1029.1667,722.9167 C1079.1979,806.2188 1075.2188,837.0833 1088.5417,933.3333 C1091.0208,951.2188 1092.9271,956.4479 1088.5417,973.9583 C1086.3854,982.5729 1083.1563,991.2813 1079.3958,999.6458 " fill="none" id="acc-to-ink" style="stroke:#2196F3;stroke-width:3.125;"/><polygon fill="#2196F3" points="1076.9896,1004.8125,1084.7136,998.0603,1079.1807,1000.0875,1077.1535,994.5546,1076.9896,1004.8125" style="stroke:#2196F3;stroke-width:3.125;"/><text fill="#222222" font-family="&quot;Verdana&quot;" font-size="13.5417" lengthAdjust="spacing" textLength="56.25" x="1094.7917" y="854.0594">Payment</text><!--MD5=[428e6a37f3d89d1ab708ce4a52792f0f]
@startuml
!theme materia
top to bottom direction

actor Customer as cus
actor "Recrut" as req
package PSC {
    actor Administration as adm
    actor Service as serv
    package Departments {
        actor "Security department" as sec
        actor "Inkosation department" as ink
        actor "Wapon department" as wpn
        actor "Accounting department" as acc
        actor "Recruit department" as rec
    }
}

cus <-down-> serv: Contract request/response
req <-down-> serv: Registration request/response
adm <-> serv: Custom Request/Response
Departments <-> serv: Custom Request/Response

wpn <-down-> sec: Wapon request
wpn <-down-> ink: Wapon request

acc -down-> wpn: Payment
acc -down-> sec: Payment
acc -up-> rec: Payment
acc -down-> ink: Payment
@enduml

@startuml



skinparam backgroundColor transparent
skinparam useBetaStyle false






<style>
  root {
    BackgroundColor transparent
    FontColor #FFF
    HyperLinkColor #fd7e14
    LineColor #1a78c2
    LineThickness 1
    Margin 10
    Padding 6
    Shadowing 0.0
  }
  node {
   Padding 15
   roundcorner 20
   BackgroundColor #2196F3-#1a78c2
  }
  caption {
    LineThickness 0
  }
  footer {
    LineThickness 0
  }
  groupHeader {
    BackgroundColor #fff
    FontColor #9C27B0
    FontStyle bold
  }
  header {
    LineThickness 0
  }
  referenceHeader {
    BackgroundColor transparent
    FontColor #222
    FontStyle bold
  }
  separator {
    BackgroundColor #222
    FontColor transparent
    FontStyle bold
  }
  title {
	FontSize 20
	BorderRoundCorner            8
	BorderThickness 	         1
	BackgroundColor  #fff-#fff
	FontColor #2196F3
	BorderColor #fff
  }
  nwdiagDiagram {
	network {
			FontColor #FFF
	BorderColor #2196F3
	BackgroundColor #4dabf5-#2196F3    
		LineColor #2196F3
		LineThickness 1.0
		FontColor #1a78c2
	}
	server {
			FontColor #FFF
	BorderColor #2196F3
	BackgroundColor #4dabf5-#2196F3
	}
	arrow {
		FontColor #1a78c2
		LineColor #1a78c2
	}
	group {
		BackGroundColor #fff
		LineColor $LIGHT_DARK
		LineThickness 2.0
		Margin 5
		Padding 5
	}
  }
  ganttDiagram {
	task {
			FontColor #FFF
	BorderColor #2196F3
	BackgroundColor #4dabf5-#2196F3
		LineColor #2196F3
		Margin 10
		Padding 6
	}
	note {
		FontColor #FFF
		LineColor #7D1F8D
		BackGroundColor #9C27B0
	}
	separator {
		LineColor #fff
		BackGroundColor #fff-#cccccc
		FontColor #222
	}
	milestone {
		FontColor #9C27B0
		FontSize 16
		FontStyle italic
		BackGroundColor #fff
		LineColor #cccccc
	}
	timeline {
		BackgroundColor #fff
		FontColor #222
	}
	closed {
		BackgroundColor #CC7A00
		FontColor #FFF
	}
  }
</style>
skinparam defaultFontName       "Verdana"
skinparam defaultFontSize       12
skinparam dpi                   100
skinparam shadowing             true
skinparam roundcorner           8
skinparam ParticipantPadding    40
skinparam BoxPadding            40
skinparam Padding               10
skinparam ArrowColor            #666
skinparam stereotype {
    CBackgroundColor #fff
    CBorderColor #cccccc
    ABackgroundColor #70bf73
    ABorderColor #3D8C40
    IBackgroundColor #B7161C
    IBorderColor #b7161c
    EBackgroundColor #ffad33
    EBorderColor #CC7A00
    NBackgroundColor #b052c0
    NBorderColor #7D1F8D
}
skinparam title {
	FontColor	                 #2196F3
	BorderColor	                 #cccccc
	FontSize	    	         20
	BorderRoundCorner            8
	BorderThickness 	         1
	BackgroundColor              #fff-#fff
}

skinparam legend {
	BackgroundColor #fff
	BorderColor #cccccc
	FontColor #222
}

skinparam swimlane {
	BorderColor #9C27B0
	BorderThickness 2
	TitleBackgroundColor  #fff-#fff
	TitleFontColor #2196F3
}


skinparam activity {
		FontColor #FFF
	BorderColor #2196F3
	BackgroundColor #4dabf5-#2196F3
	BarColor #4CAF50
	StartColor #9C27B0
	EndColor #9C27B0
	DiamondBackgroundColor #FFF-#fff
  	DiamondBorderColor #cccccc
	DiamondFontColor #222
}


skinparam participant {
		FontColor #FFF
	BorderColor #2196F3
	BackgroundColor #4dabf5-#2196F3
	ParticipantBorderThickness 2
}


skinparam actor {
		FontColor #FFF
	BorderColor #2196F3
	BackgroundColor #4dabf5-#2196F3
	FontColor #222
}


skinparam arrow {
	Thickness 3
	Color #2196F3
	FontColor #222
}


skinparam sequence {
	BorderColor #2196F3
	TitleFontColor #2196F3
	BackgroundColor transparent
	StartColor #2196F3
	EndColor #2196F3
	BoxBackgroundColor #fff
	BoxBorderColor #666
	BoxFontColor #222
	DelayFontColor #222
	LifeLineBorderColor #cccccc
	LifeLineBorderThickness 2
	LifeLineBackgroundColor #fff
	GroupBorderColor #666
	GroupFontColor #222
	GroupHeaderFontColor #9C27B0
	DividerBackgroundColor #FFF-#fff
    DividerBorderColor #666
    DividerBorderThickness 2
    DividerFontColor #222
	ReferenceBackgroundColor transparent
	ReferenceBorderColor #666
	ReferenceFontColor #222
	ReferenceHeaderFontColor #9C27B0
	StereotypeFontColor #FFF
}


skinparam partition {
	BorderColor #2196F3
	FontColor #2196F3
	BackgroundColor transparent
}


skinparam collections {
		FontColor #FFF
	BorderColor #2196F3
	BackgroundColor #4dabf5-#2196F3
}


skinparam control {
		FontColor #FFF
	BorderColor #2196F3
	BackgroundColor #4dabf5-#2196F3
	FontColor #222
}


skinparam entity {
		FontColor #FFF
	BorderColor #2196F3
	BackgroundColor #4dabf5-#2196F3
	FontColor #222
}


skinparam boundary {
		FontColor #FFF
	BorderColor #2196F3
	BackgroundColor #4dabf5-#2196F3
	FontColor #222
}


skinparam agent {
	BackgroundColor #orange
	BorderColor #999999
	FontColor #333333
}


skinparam note {
	BorderThickness 1
	BackgroundColor #b052c0-#9C27B0
	BorderColor #9C27B0
	FontColor #FFF
}


skinparam artifact {
	BackgroundColor #FFF-#fff
	BorderColor #666
	FontColor #666
}


skinparam component {
		FontColor #FFF
	BorderColor #2196F3
	BackgroundColor #4dabf5-#2196F3
}


skinparam interface {
	BackgroundColor  #B7161C
	BorderColor  #e51c23
	FontColor #222
}


skinparam storage {
	BackgroundColor #ffad33-#ff9800
  	BorderColor #ff9800
	FontColor #FFF
}


skinparam node {
	BackgroundColor #fff-#fff
	BorderColor #222
	FontColor #222
}


skinparam cloud {
	BackgroundColor #F2FCFE-#eeeeee
	BorderColor #F2FCFE
	FontColor #222
}


skinparam database {
		FontColor #FFF
	BorderColor #2196F3
	BackgroundColor #4dabf5-#2196F3
	FontColor #222
}


skinparam class {
		FontColor #FFF
	BorderColor #2196F3
	BackgroundColor #4dabf5-#2196F3
	HeaderBackgroundColor #2196F3-#1a78c2
	StereotypeFontColor #222
	BorderThickness 1
	AttributeFontColor #fff
	AttributeFontSize 11
}


skinparam object {
		FontColor #FFF
	BorderColor #2196F3
	BackgroundColor #4dabf5-#2196F3
	StereotypeFontColor #222
	BorderThickness 1
	AttributeFontColor #222
	AttributeFontSize 11
}


skinparam usecase {
		FontColor #FFF
	BorderColor #2196F3
	BackgroundColor #4dabf5-#2196F3
	BorderThickness 2
	StereotypeFontColor #2196F3
}


skinparam rectangle {
	FontColor #2196F3
	BackgroundColor #fff-#fff
	BorderThickness 2
	StereotypeFontColor #2196F3
}


skinparam package {
		FontColor #FFF
	BorderColor #2196F3
	BackgroundColor #4dabf5-#2196F3
	BackgroundColor #fff-#fff
	BorderThickness 2
}


skinparam folder {
	BackgroundColor #FFF-#fff
  	BorderColor #ff9800
	FontColor #ff9800
	BorderThickness 2
}


skinparam frame {
	BackgroundColor #FFF-#fff
  	BorderColor #9C27B0
	FontColor #9C27B0
	BorderThickness 2
}


skinparam state {
		FontColor #FFF
	BorderColor #2196F3
	BackgroundColor #4dabf5-#2196F3
	BorderColor #1a78c2
	StartColor #9C27B0
	EndColor #9C27B0
	AttributeFontColor #222
	AttributeFontSize 11
}


skinparam queue {
		FontColor #FFF
	BorderColor #2196F3
	BackgroundColor #4dabf5-#2196F3
}


skinparam card {
	BackgroundColor #b052c0-#9C27B0
	BorderColor #9C27B0
	FontColor #FFF
}


skinparam file {
	BackgroundColor #fff-#fff
	BorderColor #666
	FontColor #666

}


skinparam stack {
		FontColor #FFF
	BorderColor #2196F3
	BackgroundColor #4dabf5-#2196F3
}
top to bottom direction

actor Customer as cus
actor "Recrut" as req
package PSC {
    actor Administration as adm
    actor Service as serv
    package Departments {
        actor "Security department" as sec
        actor "Inkosation department" as ink
        actor "Wapon department" as wpn
        actor "Accounting department" as acc
        actor "Recruit department" as rec
    }
}

cus <-down-> serv: Contract request/response
req <-down-> serv: Registration request/response
adm <-> serv: Custom Request/Response
Departments <-> serv: Custom Request/Response

wpn <-down-> sec: Wapon request
wpn <-down-> ink: Wapon request

acc -down-> wpn: Payment
acc -down-> sec: Payment
acc -up-> rec: Payment
acc -down-> ink: Payment
@enduml

PlantUML version 1.2021.16(Wed Dec 08 20:25:22 MSK 2021)
(GPL source distribution)
Java Runtime: OpenJDK Runtime Environment
JVM: OpenJDK 64-Bit Server VM
Default Encoding: UTF-8
Language: en
Country: US
--></g></svg>