<?xml version="1.0" encoding="UTF-8" standalone="no"?><svg xmlns="http://www.w3.org/2000/svg" xmlns:xlink="http://www.w3.org/1999/xlink" contentScriptType="application/ecmascript" contentStyleType="text/css" height="1134.375px" preserveAspectRatio="none" style="width:1021px;height:1134px;background:#00000000;" version="1.1" viewBox="0 0 1021 1134" width="1021.875px" zoomAndPan="magnify"><defs><linearGradient id="g11rj1u5o3t9af0" x1="50%" x2="50%" y1="0%" y2="100%"><stop offset="0%" stop-color="#FFFFFF"/><stop offset="100%" stop-color="#FFFFFF"/></linearGradient><filter height="300%" id="f11rj1u5o3t9af" width="300%" x="-1" y="-1"><feGaussianBlur result="blurOut" stdDeviation="2.0833333333333335"/><feColorMatrix in="blurOut" result="blurOut2" type="matrix" values="0 0 0 0 0 0 0 0 0 0 0 0 0 0 0 0 0 0 .4 0"/><feOffset dx="4.166666666666667" dy="4.166666666666667" in="blurOut2" result="blurOut3"/><feBlend in="SourceGraphic" in2="blurOut3" mode="normal"/></filter><linearGradient id="g11rj1u5o3t9af1" x1="50%" x2="50%" y1="0%" y2="100%"><stop offset="0%" stop-color="#4DABF5"/><stop offset="100%" stop-color="#2196F3"/></linearGradient></defs><g><!--MD5=[979da56a7f83e2393dc758167ae295d0]
cluster Server--><path d="M20.8333,16.6667 L104.9479,16.6667 A6.25,6.25 0 0 1 109.1146,20.8333 L116.4063,72.125 L1005.2083,72.125 A4.1667,4.1667 0 0 1 1009.375,76.2916 L1009.375,1118.2292 A4.1667,4.1667 0 0 1 1005.2083,1122.3958 L20.8333,1122.3958 A4.1667,4.1667 0 0 1 16.6667,1118.2292 L16.6667,20.8333 A4.1667,4.1667 0 0 1 20.8333,16.6667 " fill="url(#g11rj1u5o3t9af0)" filter="url(#f11rj1u5o3t9af)" style="stroke:#2196F3;stroke-width:1.0416666666666667;"/><line style="stroke:#2196F3;stroke-width:1.0416666666666667;" x1="16.6667" x2="116.4063" y1="72.125" y2="72.125"/><text fill="#2196F3" font-family="&quot;Verdana&quot;" font-size="20.8333" font-weight="bold" lengthAdjust="spacing" textLength="65.3646" x="31.25" y="51.4375">Server</text><!--MD5=[f6dca2d41a3b6aa93a2f53da6142b591]
cluster SQLite--><path d="M455.2083,232.8125 C455.2083,222.3958 544.2708,222.3958 544.2708,222.3958 C544.2708,222.3958 633.3333,222.3958 633.3333,232.8125 L633.3333,401.5625 C633.3333,411.9792 544.2708,411.9792 544.2708,411.9792 C544.2708,411.9792 455.2083,411.9792 455.2083,401.5625 L455.2083,232.8125 " fill="url(#g11rj1u5o3t9af0)" filter="url(#f11rj1u5o3t9af)" style="stroke:#2196F3;stroke-width:1.0416666666666667;"/><path d="M455.2083,232.8125 C455.2083,243.2292 544.2708,243.2292 544.2708,243.2292 C544.2708,243.2292 633.3333,243.2292 633.3333,232.8125 " fill="none" style="stroke:#2196F3;stroke-width:1.0416666666666667;"/><text fill="#2196F3" font-family="&quot;Verdana&quot;" font-size="20.8333" font-weight="bold" lengthAdjust="spacing" textLength="66.4063" x="511.0677" y="278">SQLite</text><!--MD5=[ad1ccc8de92f1bc58f780b3d3b678fdb]
cluster driver--><polygon fill="url(#g11rj1u5o3t9af0)" filter="url(#f11rj1u5o3t9af)" points="455.2083,473.4375,465.625,463.0208,976.0417,463.0208,976.0417,882.8125,965.625,893.2292,455.2083,893.2292,455.2083,473.4375" style="stroke:#222222;stroke-width:1.0416666666666667;"/><line style="stroke:#222222;stroke-width:1.0416666666666667;" x1="965.625" x2="976.0417" y1="473.4375" y2="463.0208"/><line style="stroke:#222222;stroke-width:1.0416666666666667;" x1="455.2083" x2="965.625" y1="473.4375" y2="473.4375"/><line style="stroke:#222222;stroke-width:1.0416666666666667;" x1="965.625" x2="965.625" y1="473.4375" y2="893.2292"/><text fill="#2196F3" font-family="&quot;Verdana&quot;" font-size="20.8333" font-weight="bold" lengthAdjust="spacing" textLength="162.2396" x="630.3385" y="509.25">Database driver</text><!--MD5=[4ef80439e1ef409f8f3a0ec422262701]
cluster server--><polygon fill="url(#g11rj1u5o3t9af0)" filter="url(#f11rj1u5o3t9af)" points="50,225,60.4167,214.5833,413.5417,214.5833,413.5417,1078.6458,403.125,1089.0625,50,1089.0625,50,225" style="stroke:#222222;stroke-width:1.0416666666666667;"/><line style="stroke:#222222;stroke-width:1.0416666666666667;" x1="403.125" x2="413.5417" y1="225" y2="214.5833"/><line style="stroke:#222222;stroke-width:1.0416666666666667;" x1="50" x2="403.125" y1="225" y2="225"/><line style="stroke:#222222;stroke-width:1.0416666666666667;" x1="403.125" x2="403.125" y1="225" y2="1089.0625"/><text fill="#2196F3" font-family="&quot;Verdana&quot;" font-size="20.8333" font-weight="bold" lengthAdjust="spacing" textLength="65.3646" x="192.3177" y="260.8125">Server</text><!--MD5=[8a3b23346926112bca4813b9a35ab60e]
cluster Processor--><polygon fill="url(#g11rj1u5o3t9af0)" filter="url(#f11rj1u5o3t9af)" points="91.6667,724.4792,102.0833,714.0625,363.5417,714.0625,363.5417,1036.9792,353.125,1047.3958,91.6667,1047.3958,91.6667,724.4792" style="stroke:#222222;stroke-width:1.0416666666666667;"/><line style="stroke:#222222;stroke-width:1.0416666666666667;" x1="353.125" x2="363.5417" y1="724.4792" y2="714.0625"/><line style="stroke:#222222;stroke-width:1.0416666666666667;" x1="91.6667" x2="353.125" y1="724.4792" y2="724.4792"/><line style="stroke:#222222;stroke-width:1.0416666666666667;" x1="353.125" x2="353.125" y1="724.4792" y2="1047.3958"/><text fill="#2196F3" font-family="&quot;Verdana&quot;" font-size="20.8333" font-weight="bold" lengthAdjust="spacing" textLength="102.7344" x="172.0703" y="760.2916">Processor</text><!--MD5=[0d8424259f44d71ca00f8483b6ac739b]
entity uEvent--><ellipse cx="405.2083" cy="121.3542" fill="#B7161C" filter="url(#f11rj1u5o3t9af)" rx="8.3333" ry="8.3333" style="stroke:#E51C23;stroke-width:1.0416666666666667;"/><text fill="#222222" font-family="&quot;Verdana&quot;" font-size="14.5833" lengthAdjust="spacing" textLength="75" x="367.7083" y="165.0687">User event</text><!--MD5=[d7a01c17c4163d10b2c6131af23a7c66]
entity logger--><polygon fill="url(#g11rj1u5o3t9af0)" filter="url(#f11rj1u5o3t9af)" points="657.8125,325.5208,668.2292,315.1042,769.2708,315.1042,769.2708,376.6332,758.8542,387.0499,657.8125,387.0499,657.8125,325.5208" style="stroke:#222222;stroke-width:1.0416666666666667;"/><line style="stroke:#222222;stroke-width:1.0416666666666667;" x1="758.8542" x2="769.2708" y1="325.5208" y2="315.1042"/><line style="stroke:#222222;stroke-width:1.0416666666666667;" x1="657.8125" x2="758.8542" y1="325.5208" y2="325.5208"/><line style="stroke:#222222;stroke-width:1.0416666666666667;" x1="758.8542" x2="758.8542" y1="325.5208" y2="387.0499"/><text fill="#222222" font-family="&quot;Verdana&quot;" font-size="14.5833" lengthAdjust="spacing" textLength="48.9583" x="683.8542" y="361.9437">Logger</text><!--MD5=[61cd25fba67235613b8afc34aee24c96]
entity Tables--><rect fill="url(#g11rj1u5o3t9af1)" filter="url(#f11rj1u5o3t9af)" height="71.9457" rx="4.1667" ry="4.1667" style="stroke:#2196F3;stroke-width:1.0416666666666667;" width="108.3333" x="500" y="315.1042"/><rect fill="url(#g11rj1u5o3t9af1)" height="10.4167" style="stroke:#2196F3;stroke-width:1.0416666666666667;" width="15.625" x="587.5" y="320.3125"/><rect fill="url(#g11rj1u5o3t9af1)" height="2.0833" style="stroke:#2196F3;stroke-width:1.0416666666666667;" width="4.1667" x="585.4167" y="322.3958"/><rect fill="url(#g11rj1u5o3t9af1)" height="2.0833" style="stroke:#2196F3;stroke-width:1.0416666666666667;" width="4.1667" x="585.4167" y="326.5625"/><text fill="#FFFFFF" font-family="&quot;Verdana&quot;" font-size="14.5833" lengthAdjust="spacing" textLength="45.8333" x="526.0417" y="361.9437">Tables</text><!--MD5=[1b1c8cafd3a99d721fd0b301f43aa787]
entity pageman--><polygon fill="url(#g11rj1u5o3t9af0)" filter="url(#f11rj1u5o3t9af)" points="186.9792,95.8333,197.3958,85.4167,358.8542,85.4167,358.8542,146.9457,348.4375,157.3624,186.9792,157.3624,186.9792,95.8333" style="stroke:#222222;stroke-width:1.0416666666666667;"/><line style="stroke:#222222;stroke-width:1.0416666666666667;" x1="348.4375" x2="358.8542" y1="95.8333" y2="85.4167"/><line style="stroke:#222222;stroke-width:1.0416666666666667;" x1="186.9792" x2="348.4375" y1="95.8333" y2="95.8333"/><line style="stroke:#222222;stroke-width:1.0416666666666667;" x1="348.4375" x2="348.4375" y1="95.8333" y2="157.3624"/><text fill="#222222" font-family="&quot;Verdana&quot;" font-size="14.5833" lengthAdjust="spacing" textLength="109.375" x="213.0208" y="132.2562">Pages manager</text><!--MD5=[6870522a47be6351fdd9d4a2f185880f]
entity notman--><polygon fill="url(#g11rj1u5o3t9af0)" filter="url(#f11rj1u5o3t9af)" points="451.5625,95.8333,461.9792,85.4167,623.4375,85.4167,623.4375,146.9457,613.0208,157.3624,451.5625,157.3624,451.5625,95.8333" style="stroke:#222222;stroke-width:1.0416666666666667;"/><line style="stroke:#222222;stroke-width:1.0416666666666667;" x1="613.0208" x2="623.4375" y1="95.8333" y2="85.4167"/><line style="stroke:#222222;stroke-width:1.0416666666666667;" x1="451.5625" x2="613.0208" y1="95.8333" y2="95.8333"/><line style="stroke:#222222;stroke-width:1.0416666666666667;" x1="613.0208" x2="613.0208" y1="95.8333" y2="157.3624"/><text fill="#222222" font-family="&quot;Verdana&quot;" font-size="14.5833" lengthAdjust="spacing" textLength="109.375" x="477.6042" y="132.2562">Notify manager</text><!--MD5=[42f1a4dde05c988e867662bf0bb4d5ec]
entity Command listner--><rect fill="url(#g11rj1u5o3t9af1)" filter="url(#f11rj1u5o3t9af)" height="71.9457" rx="4.1667" ry="4.1667" style="stroke:#2196F3;stroke-width:1.0416666666666667;" width="183.3333" x="500" y="545.3125"/><rect fill="url(#g11rj1u5o3t9af1)" height="10.4167" style="stroke:#2196F3;stroke-width:1.0416666666666667;" width="15.625" x="662.5" y="550.5208"/><rect fill="url(#g11rj1u5o3t9af1)" height="2.0833" style="stroke:#2196F3;stroke-width:1.0416666666666667;" width="4.1667" x="660.4167" y="552.6042"/><rect fill="url(#g11rj1u5o3t9af1)" height="2.0833" style="stroke:#2196F3;stroke-width:1.0416666666666667;" width="4.1667" x="660.4167" y="556.7708"/><text fill="#FFFFFF" font-family="&quot;Verdana&quot;" font-size="14.5833" lengthAdjust="spacing" textLength="120.8333" x="526.0417" y="592.152">Command listner</text><!--MD5=[5d72c845f769376038ecbe47c08b813c]
entity Command preprocessor--><rect fill="url(#g11rj1u5o3t9af1)" filter="url(#f11rj1u5o3t9af)" height="71.9457" rx="4.1667" ry="4.1667" style="stroke:#2196F3;stroke-width:1.0416666666666667;" width="231.25" x="719.7917" y="545.3125"/><rect fill="url(#g11rj1u5o3t9af1)" height="10.4167" style="stroke:#2196F3;stroke-width:1.0416666666666667;" width="15.625" x="930.2083" y="550.5208"/><rect fill="url(#g11rj1u5o3t9af1)" height="2.0833" style="stroke:#2196F3;stroke-width:1.0416666666666667;" width="4.1667" x="928.125" y="552.6042"/><rect fill="url(#g11rj1u5o3t9af1)" height="2.0833" style="stroke:#2196F3;stroke-width:1.0416666666666667;" width="4.1667" x="928.125" y="556.7708"/><text fill="#FFFFFF" font-family="&quot;Verdana&quot;" font-size="14.5833" lengthAdjust="spacing" textLength="168.75" x="745.8333" y="592.152">Command preprocessor</text><!--MD5=[10591038f90d660825beef51e149fe2b]
entity Command executor--><rect fill="url(#g11rj1u5o3t9af1)" filter="url(#f11rj1u5o3t9af)" height="71.9457" rx="4.1667" ry="4.1667" style="stroke:#2196F3;stroke-width:1.0416666666666667;" width="198.9583" x="735.9375" y="796.3542"/><rect fill="url(#g11rj1u5o3t9af1)" height="10.4167" style="stroke:#2196F3;stroke-width:1.0416666666666667;" width="15.625" x="914.0625" y="801.5625"/><rect fill="url(#g11rj1u5o3t9af1)" height="2.0833" style="stroke:#2196F3;stroke-width:1.0416666666666667;" width="4.1667" x="911.9792" y="803.6458"/><rect fill="url(#g11rj1u5o3t9af1)" height="2.0833" style="stroke:#2196F3;stroke-width:1.0416666666666667;" width="4.1667" x="911.9792" y="807.8125"/><text fill="#FFFFFF" font-family="&quot;Verdana&quot;" font-size="14.5833" lengthAdjust="spacing" textLength="136.4583" x="761.9792" y="843.1937">Command executor</text><!--MD5=[1c6f0381035d37faabcf8172735cb275]
entity TCP--><ellipse cx="152.0833" cy="351.0417" fill="#B7161C" filter="url(#f11rj1u5o3t9af)" rx="8.3333" ry="8.3333" style="stroke:#E51C23;stroke-width:1.0416666666666667;"/><text fill="#222222" font-family="&quot;Verdana&quot;" font-size="14.5833" lengthAdjust="spacing" textLength="26.0417" x="139.0625" y="394.7562">TCP</text><!--MD5=[cc84a2c330ca7d2c7ae2ea972c37b92c]
entity Listen Socket--><rect fill="url(#g11rj1u5o3t9af1)" filter="url(#f11rj1u5o3t9af)" height="71.9457" rx="4.1667" ry="4.1667" style="stroke:#2196F3;stroke-width:1.0416666666666667;" width="153.125" x="75.5208" y="545.3125"/><rect fill="url(#g11rj1u5o3t9af1)" height="10.4167" style="stroke:#2196F3;stroke-width:1.0416666666666667;" width="15.625" x="207.8125" y="550.5208"/><rect fill="url(#g11rj1u5o3t9af1)" height="2.0833" style="stroke:#2196F3;stroke-width:1.0416666666666667;" width="4.1667" x="205.7292" y="552.6042"/><rect fill="url(#g11rj1u5o3t9af1)" height="2.0833" style="stroke:#2196F3;stroke-width:1.0416666666666667;" width="4.1667" x="205.7292" y="556.7708"/><text fill="#FFFFFF" font-family="&quot;Verdana&quot;" font-size="14.5833" lengthAdjust="spacing" textLength="90.625" x="101.5625" y="592.152">Listen Socket</text><!--MD5=[19de42b61d999ca7879a1b1a110d6515]
entity Accept process loop--><rect fill="url(#g11rj1u5o3t9af1)" filter="url(#f11rj1u5o3t9af)" height="71.9457" rx="4.1667" ry="4.1667" style="stroke:#2196F3;stroke-width:1.0416666666666667;" width="202.0833" x="136.4583" y="796.3542"/><rect fill="url(#g11rj1u5o3t9af1)" height="10.4167" style="stroke:#2196F3;stroke-width:1.0416666666666667;" width="15.625" x="317.7083" y="801.5625"/><rect fill="url(#g11rj1u5o3t9af1)" height="2.0833" style="stroke:#2196F3;stroke-width:1.0416666666666667;" width="4.1667" x="315.625" y="803.6458"/><rect fill="url(#g11rj1u5o3t9af1)" height="2.0833" style="stroke:#2196F3;stroke-width:1.0416666666666667;" width="4.1667" x="315.625" y="807.8125"/><text fill="#FFFFFF" font-family="&quot;Verdana&quot;" font-size="14.5833" lengthAdjust="spacing" textLength="139.5833" x="162.5" y="843.1937">Accept process loop</text><!--MD5=[f27c8ef4482d6c6ac7fea43dda81189e]
entity Processor worker--><rect fill="url(#g11rj1u5o3t9af1)" filter="url(#f11rj1u5o3t9af)" height="71.9457" rx="4.1667" ry="4.1667" style="stroke:#2196F3;stroke-width:1.0416666666666667;" width="182.2917" x="146.3542" y="950.5208"/><rect fill="url(#g11rj1u5o3t9af1)" height="10.4167" style="stroke:#2196F3;stroke-width:1.0416666666666667;" width="15.625" x="307.8125" y="955.7292"/><rect fill="url(#g11rj1u5o3t9af1)" height="2.0833" style="stroke:#2196F3;stroke-width:1.0416666666666667;" width="4.1667" x="305.7292" y="957.8125"/><rect fill="url(#g11rj1u5o3t9af1)" height="2.0833" style="stroke:#2196F3;stroke-width:1.0416666666666667;" width="4.1667" x="305.7292" y="961.9792"/><text fill="#FFFFFF" font-family="&quot;Verdana&quot;" font-size="14.5833" lengthAdjust="spacing" textLength="119.7917" x="172.3958" y="997.3603">Processor worker</text><!--MD5=[e27665a445c6f2efbc05fb7c2baf9ef3]
link uEvent to notman--><path d="M415.0313,121.3542 C427.1458,121.3542 439.2708,121.3542 451.3854,121.3542 " fill="none" id="uEvent-notman" style="stroke:#2196F3;stroke-width:3.125;"/><!--MD5=[38b5132151658dc5fe409678770c7769]
link pageman to uEvent--><path d="M359.2188,121.3542 C371.3125,121.3542 383.4063,121.3542 395.5104,121.3542 " fill="none" id="pageman-uEvent" style="stroke:#2196F3;stroke-width:3.125;"/><!--MD5=[20d8c6ff87f58e2c46afcf35b9a83992]
link Command listner to Command preprocessor--><path d="M683.5521,581.25 C693.8229,581.25 704.0938,581.25 714.3646,581.25 " fill="none" id="Command listner-to-Command preprocessor" style="stroke:#2196F3;stroke-width:3.125;"/><polygon fill="#2196F3" points="719.7396,581.25,710.3646,577.0833,714.5313,581.25,710.3646,585.4167,719.7396,581.25" style="stroke:#2196F3;stroke-width:3.125;"/><!--MD5=[34d7db00c7eb409804c49c3892509a57]
link Command preprocessor to Command executor--><path d="M835.4167,617.4375 C835.4167,663.125 835.4167,742.7396 835.4167,790.8646 " fill="none" id="Command preprocessor-to-Command executor" style="stroke:#2196F3;stroke-width:3.125;"/><polygon fill="#2196F3" points="835.4167,796.2917,839.5833,786.9167,835.4167,791.0833,831.25,786.9167,835.4167,796.2917" style="stroke:#2196F3;stroke-width:3.125;"/><!--MD5=[f5e5b7901745af4401e63e01e88c4fcb]
link TCP to Listen Socket--><path d="M152.0833,360.4688 C152.0833,390.1354 152.0833,491.1771 152.0833,545.3021 " fill="none" id="TCP-Listen Socket" style="stroke:#2196F3;stroke-width:3.125;"/><!--MD5=[9089125448802b14d39f7c8ae6a38138]
link Accept process loop to Processor worker--><path d="M237.5,868.6042 C237.5,891.4479 237.5,921.2604 237.5,945.0417 " fill="none" id="Accept process loop-to-Processor worker" style="stroke:#2196F3;stroke-width:3.125;"/><polygon fill="#2196F3" points="237.5,950.3333,241.6667,940.9583,237.5,945.125,233.3333,940.9583,237.5,950.3333" style="stroke:#2196F3;stroke-width:3.125;"/><!--MD5=[8cc0fcbea97f00a2752cb25ba202159d]
link Listen Socket to Processor--><path d="M141.0208,617.2708 C134.1667,639.9375 125.5938,670.1979 119.7917,697.3958 C119.0195,701.0143 118.2675,704.6942 117.536,708.4143 C117.1703,710.2743 116.8097,712.1443 116.4543,714.0218 " fill="none" id="Listen Socket-to-Processor" style="stroke:#2196F3;stroke-width:3.125;"/><polygon fill="#2196F3" points="116.4543,714.0218,122.292,705.5854,117.423,708.9043,114.1041,704.0354,116.4543,714.0218" style="stroke:#2196F3;stroke-width:3.125;"/><text fill="#222222" font-family="&quot;Verdana&quot;" font-size="13.5417" lengthAdjust="spacing" textLength="101.0417" x="142.7083" y="674.3719">New connection</text><!--MD5=[7673811efe8c8a6680bc5015d50352c0]
link SQLite to driver--><path d="M463.5417,412.4581 C463.5417,412.8442 463.5417,413.2313 463.5417,413.6195 C463.5417,414.3958 463.5417,415.1763 463.5417,415.9607 C463.5417,419.0985 463.5417,422.2995 463.5417,425.5511 C463.5417,432.0545 463.5417,438.7603 463.5417,445.5672 C463.5417,448.9707 463.5417,452.3994 463.5417,455.8408 C463.5417,457.5615 463.5417,459.2853 463.5417,461.0107 C463.5417,461.4421 463.5417,461.8735 463.5417,462.3051 C463.5417,462.5208 463.5417,462.7366 463.5417,462.9524 " fill="none" id="SQLite-driver" style="stroke:#2196F3;stroke-width:3.125;"/><polygon fill="#2196F3" points="463.5417,462.9524,467.7083,453.5774,463.5417,457.7441,459.375,453.5774,463.5417,462.9524" style="stroke:#2196F3;stroke-width:3.125;"/><polygon fill="#2196F3" points="463.5417,412.4581,459.375,421.8331,463.5417,417.6664,467.7083,421.8331,463.5417,412.4581" style="stroke:#2196F3;stroke-width:3.125;"/><!--MD5=[8c7bdce0c8aec25dea0952160abfd465]
link server to driver--><path d="M413.6086,384.9361 C413.6889,385.2502 413.7697,385.5659 413.8509,385.8834 C414.1756,387.1531 414.5072,388.4498 414.8452,389.7718 C420.2542,410.9238 427.321,438.5586 434.3867,466.1901 C441.4525,493.8216 448.5173,521.4499 453.9224,542.5889 C454.2602,543.9101 454.5915,545.2059 454.916,546.4748 C454.9971,546.792 455.0778,547.1076 455.158,547.4214 " fill="none" id="server-driver" style="stroke:#2196F3;stroke-width:3.125;"/><polygon fill="#2196F3" points="455.158,547.4214,456.8724,537.3064,453.8678,542.3754,448.7988,539.3708,455.158,547.4214" style="stroke:#2196F3;stroke-width:3.125;"/><polygon fill="#2196F3" points="413.6086,384.9361,411.8945,395.0511,414.899,389.9821,419.968,392.9865,413.6086,384.9361" style="stroke:#2196F3;stroke-width:3.125;"/><!--MD5=[b97a80842f037f2826c15d4fc2cec73b]
link uEvent to server--><path d="M405.2083,130.7708 C405.2083,140.875 405.2083,159.2832 405.2083,181.2964 C405.2083,186.7997 405.2083,192.5283 405.2083,198.4088 C405.2083,201.349 405.2083,204.3273 405.2083,207.3343 C405.2083,208.8378 405.2083,210.3485 405.2083,211.8652 C405.2083,212.6236 405.2083,213.3835 405.2083,214.1448 " fill="none" id="uEvent-server" style="stroke:#2196F3;stroke-width:3.125;"/><!--MD5=[b4a23d3568885600ada2be4526170a58]
link logger to driver--><path d="M682.3854,387.1354 C666.7396,402.4479 646.5417,419.0625 625,428.6458 C596.0104,441.5417 506.0208,424.1771 483.3333,446.3542 C480.6882,448.9408 478.2935,451.7157 476.1287,454.6461 C475.0462,456.1113 474.0212,457.6154 473.0511,459.1542 C472.566,459.9236 472.0946,460.7017 471.6366,461.4879 C471.4077,461.8811 471.182,462.2762 470.9597,462.6734 " fill="none" id="logger-driver" style="stroke:#2196F3;stroke-width:3.125;"/><!--MD5=[da63d9ba09056a03d0ef148a94a57bbd]
link logger to server--><path d="M704.4271,314.9062 C691.25,271.75 662.1458,202.3125 606.7708,177.6042 C549.2708,151.9479 522.6042,151.9479 465.1042,177.6042 C447.0677,185.651 434.2546,199.9733 425.1925,217.0592 C420.6615,225.6022 417.0683,234.8361 414.2289,244.3219 C414.0514,244.9148 413.8769,245.5087 413.7053,246.1034 " fill="none" id="logger-server" style="stroke:#2196F3;stroke-width:3.125;"/><!--MD5=[cc0d41a983f0179b00c1fc11bebb10b1]
@startuml
!theme materia


package Server {

interface "User event" as uEvent

database "SQLite" {
top to bottom direction
[Tables]
}

node "Pages manager" as pageman {
}

node "Notify manager" as notman {
}

node "Logger" as logger

uEvent -right- notman
uEvent -left- pageman

node "Database driver" as driver {
[Command listner] -> [Command preprocessor]
[Command preprocessor] -down-> [Command executor]
}

node "Server " as server {
TCP -down- [Listen Socket]

node "Processor" {
[Accept process loop] -down-> [Processor worker]
}

[Listen Socket] -down-> Processor: "New connection"
}

SQLite <-down-> driver
server <-down-> driver

uEvent -down- server

logger - driver
logger - server

}
@enduml

@startuml



skinparam backgroundColor transparent
skinparam useBetaStyle false






<style>
  root {
    BackgroundColor transparent
    FontColor #FFF
    HyperLinkColor #fd7e14
    LineColor #1a78c2
    LineThickness 1
    Margin 10
    Padding 6
    Shadowing 0.0
  }
  node {
   Padding 15
   roundcorner 20
   BackgroundColor #2196F3-#1a78c2
  }
  caption {
    LineThickness 0
  }
  footer {
    LineThickness 0
  }
  groupHeader {
    BackgroundColor #fff
    FontColor #9C27B0
    FontStyle bold
  }
  header {
    LineThickness 0
  }
  referenceHeader {
    BackgroundColor transparent
    FontColor #222
    FontStyle bold
  }
  separator {
    BackgroundColor #222
    FontColor transparent
    FontStyle bold
  }
  title {
	FontSize 20
	BorderRoundCorner            8
	BorderThickness 	         1
	BackgroundColor  #fff-#fff
	FontColor #2196F3
	BorderColor #fff
  }
  nwdiagDiagram {
	network {
			FontColor #FFF
	BorderColor #2196F3
	BackgroundColor #4dabf5-#2196F3    
		LineColor #2196F3
		LineThickness 1.0
		FontColor #1a78c2
	}
	server {
			FontColor #FFF
	BorderColor #2196F3
	BackgroundColor #4dabf5-#2196F3
	}
	arrow {
		FontColor #1a78c2
		LineColor #1a78c2
	}
	group {
		BackGroundColor #fff
		LineColor $LIGHT_DARK
		LineThickness 2.0
		Margin 5
		Padding 5
	}
  }
  ganttDiagram {
	task {
			FontColor #FFF
	BorderColor #2196F3
	BackgroundColor #4dabf5-#2196F3
		LineColor #2196F3
		Margin 10
		Padding 6
	}
	note {
		FontColor #FFF
		LineColor #7D1F8D
		BackGroundColor #9C27B0
	}
	separator {
		LineColor #fff
		BackGroundColor #fff-#cccccc
		FontColor #222
	}
	milestone {
		FontColor #9C27B0
		FontSize 16
		FontStyle italic
		BackGroundColor #fff
		LineColor #cccccc
	}
	timeline {
		BackgroundColor #fff
		FontColor #222
	}
	closed {
		BackgroundColor #CC7A00
		FontColor #FFF
	}
  }
</style>
skinparam defaultFontName       "Verdana"
skinparam defaultFontSize       12
skinparam dpi                   100
skinparam shadowing             true
skinparam roundcorner           8
skinparam ParticipantPadding    40
skinparam BoxPadding            40
skinparam Padding               10
skinparam ArrowColor            #666
skinparam stereotype {
    CBackgroundColor #fff
    CBorderColor #cccccc
    ABackgroundColor #70bf73
    ABorderColor #3D8C40
    IBackgroundColor #B7161C
    IBorderColor #b7161c
    EBackgroundColor #ffad33
    EBorderColor #CC7A00
    NBackgroundColor #b052c0
    NBorderColor #7D1F8D
}
skinparam title {
	FontColor	                 #2196F3
	BorderColor	                 #cccccc
	FontSize	    	         20
	BorderRoundCorner            8
	BorderThickness 	         1
	BackgroundColor              #fff-#fff
}

skinparam legend {
	BackgroundColor #fff
	BorderColor #cccccc
	FontColor #222
}

skinparam swimlane {
	BorderColor #9C27B0
	BorderThickness 2
	TitleBackgroundColor  #fff-#fff
	TitleFontColor #2196F3
}


skinparam activity {
		FontColor #FFF
	BorderColor #2196F3
	BackgroundColor #4dabf5-#2196F3
	BarColor #4CAF50
	StartColor #9C27B0
	EndColor #9C27B0
	DiamondBackgroundColor #FFF-#fff
  	DiamondBorderColor #cccccc
	DiamondFontColor #222
}


skinparam participant {
		FontColor #FFF
	BorderColor #2196F3
	BackgroundColor #4dabf5-#2196F3
	ParticipantBorderThickness 2
}


skinparam actor {
		FontColor #FFF
	BorderColor #2196F3
	BackgroundColor #4dabf5-#2196F3
	FontColor #222
}


skinparam arrow {
	Thickness 3
	Color #2196F3
	FontColor #222
}


skinparam sequence {
	BorderColor #2196F3
	TitleFontColor #2196F3
	BackgroundColor transparent
	StartColor #2196F3
	EndColor #2196F3
	BoxBackgroundColor #fff
	BoxBorderColor #666
	BoxFontColor #222
	DelayFontColor #222
	LifeLineBorderColor #cccccc
	LifeLineBorderThickness 2
	LifeLineBackgroundColor #fff
	GroupBorderColor #666
	GroupFontColor #222
	GroupHeaderFontColor #9C27B0
	DividerBackgroundColor #FFF-#fff
    DividerBorderColor #666
    DividerBorderThickness 2
    DividerFontColor #222
	ReferenceBackgroundColor transparent
	ReferenceBorderColor #666
	ReferenceFontColor #222
	ReferenceHeaderFontColor #9C27B0
	StereotypeFontColor #FFF
}


skinparam partition {
	BorderColor #2196F3
	FontColor #2196F3
	BackgroundColor transparent
}


skinparam collections {
		FontColor #FFF
	BorderColor #2196F3
	BackgroundColor #4dabf5-#2196F3
}


skinparam control {
		FontColor #FFF
	BorderColor #2196F3
	BackgroundColor #4dabf5-#2196F3
	FontColor #222
}


skinparam entity {
		FontColor #FFF
	BorderColor #2196F3
	BackgroundColor #4dabf5-#2196F3
	FontColor #222
}


skinparam boundary {
		FontColor #FFF
	BorderColor #2196F3
	BackgroundColor #4dabf5-#2196F3
	FontColor #222
}


skinparam agent {
	BackgroundColor #orange
	BorderColor #999999
	FontColor #333333
}


skinparam note {
	BorderThickness 1
	BackgroundColor #b052c0-#9C27B0
	BorderColor #9C27B0
	FontColor #FFF
}


skinparam artifact {
	BackgroundColor #FFF-#fff
	BorderColor #666
	FontColor #666
}


skinparam component {
		FontColor #FFF
	BorderColor #2196F3
	BackgroundColor #4dabf5-#2196F3
}


skinparam interface {
	BackgroundColor  #B7161C
	BorderColor  #e51c23
	FontColor #222
}


skinparam storage {
	BackgroundColor #ffad33-#ff9800
  	BorderColor #ff9800
	FontColor #FFF
}


skinparam node {
	BackgroundColor #fff-#fff
	BorderColor #222
	FontColor #222
}


skinparam cloud {
	BackgroundColor #F2FCFE-#eeeeee
	BorderColor #F2FCFE
	FontColor #222
}


skinparam database {
		FontColor #FFF
	BorderColor #2196F3
	BackgroundColor #4dabf5-#2196F3
	FontColor #222
}


skinparam class {
		FontColor #FFF
	BorderColor #2196F3
	BackgroundColor #4dabf5-#2196F3
	HeaderBackgroundColor #2196F3-#1a78c2
	StereotypeFontColor #222
	BorderThickness 1
	AttributeFontColor #fff
	AttributeFontSize 11
}


skinparam object {
		FontColor #FFF
	BorderColor #2196F3
	BackgroundColor #4dabf5-#2196F3
	StereotypeFontColor #222
	BorderThickness 1
	AttributeFontColor #222
	AttributeFontSize 11
}


skinparam usecase {
		FontColor #FFF
	BorderColor #2196F3
	BackgroundColor #4dabf5-#2196F3
	BorderThickness 2
	StereotypeFontColor #2196F3
}


skinparam rectangle {
	FontColor #2196F3
	BackgroundColor #fff-#fff
	BorderThickness 2
	StereotypeFontColor #2196F3
}


skinparam package {
		FontColor #FFF
	BorderColor #2196F3
	BackgroundColor #4dabf5-#2196F3
	BackgroundColor #fff-#fff
	BorderThickness 2
}


skinparam folder {
	BackgroundColor #FFF-#fff
  	BorderColor #ff9800
	FontColor #ff9800
	BorderThickness 2
}


skinparam frame {
	BackgroundColor #FFF-#fff
  	BorderColor #9C27B0
	FontColor #9C27B0
	BorderThickness 2
}


skinparam state {
		FontColor #FFF
	BorderColor #2196F3
	BackgroundColor #4dabf5-#2196F3
	BorderColor #1a78c2
	StartColor #9C27B0
	EndColor #9C27B0
	AttributeFontColor #222
	AttributeFontSize 11
}


skinparam queue {
		FontColor #FFF
	BorderColor #2196F3
	BackgroundColor #4dabf5-#2196F3
}


skinparam card {
	BackgroundColor #b052c0-#9C27B0
	BorderColor #9C27B0
	FontColor #FFF
}


skinparam file {
	BackgroundColor #fff-#fff
	BorderColor #666
	FontColor #666

}


skinparam stack {
		FontColor #FFF
	BorderColor #2196F3
	BackgroundColor #4dabf5-#2196F3
}


package Server {

interface "User event" as uEvent

database "SQLite" {
top to bottom direction
[Tables]
}

node "Pages manager" as pageman {
}

node "Notify manager" as notman {
}

node "Logger" as logger

uEvent -right- notman
uEvent -left- pageman

node "Database driver" as driver {
[Command listner] -> [Command preprocessor]
[Command preprocessor] -down-> [Command executor]
}

node "Server " as server {
TCP -down- [Listen Socket]

node "Processor" {
[Accept process loop] -down-> [Processor worker]
}

[Listen Socket] -down-> Processor: "New connection"
}

SQLite <-down-> driver
server <-down-> driver

uEvent -down- server

logger - driver
logger - server

}
@enduml

PlantUML version 1.2021.16(Wed Dec 08 20:25:22 MSK 2021)
(GPL source distribution)
Java Runtime: OpenJDK Runtime Environment
JVM: OpenJDK 64-Bit Server VM
Default Encoding: UTF-8
Language: en
Country: US
--></g></svg>